<svg xmlns="http://www.w3.org/2000/svg" version="1.1" xmlns:xlink="http://www.w3.org/1999/xlink" width="200" height="200"><svg xmlns="http://www.w3.org/2000/svg" version="1.1" xmlns:xlink="http://www.w3.org/1999/xlink" viewBox="0 0 200 200"><rect width="200" height="200" fill="url('#gradient')"></rect><defs><linearGradient id="SvgjsLinearGradient1006" gradientTransform="rotate(45 0.5 0.5)"><stop offset="0%" stop-color="#5f645b"></stop><stop offset="100%" stop-color="#4e3721"></stop></linearGradient></defs><g><g fill="#d2f0f3" transform="matrix(4.969533566999191,0,0,4.969533566999191,8.062649963687264,130.01601787010722)" stroke="#a7b7b5" stroke-width="0.2"><path d="M6.10 1.79L5.49 3.52Q1.97 2.53 1.97-1.03L1.97-1.03L1.97-2.96Q1.97-4.93 0.39-4.93L0.39-4.93L0.39-7.15Q1.97-7.15 1.97-9.13L1.97-9.13L1.97-11.18Q2.00-12.94 2.89-14.02Q3.77-15.11 5.49-15.60L5.49-15.60L6.10-13.88Q4.87-13.41 4.82-11.25L4.82-11.25L4.82-9.13Q4.82-6.94 3.02-6.04L3.02-6.04Q4.82-5.15 4.82-2.95L4.82-2.95L4.82-0.84Q4.87 1.32 6.10 1.79L6.10 1.79ZM24.42-14.22L24.42 0L21.02 0L15.98-8.85L15.98 0L12.55 0L12.55-14.22L15.98-14.22L21.01-5.37L21.01-14.22L24.42-14.22ZM31.51 3.52L30.90 1.79Q32.13 1.32 32.18-0.84L32.18-0.84L32.18-2.96Q32.18-5.16 33.99-6.04L33.99-6.04Q32.18-6.93 32.18-9.13L32.18-9.13L32.18-11.25Q32.13-13.41 30.90-13.88L30.90-13.88L31.51-15.60Q33.26-15.11 34.14-14.00Q35.02-12.89 35.03-11.09L35.03-11.09L35.03-9.13Q35.03-7.15 36.61-7.15L36.61-7.15L36.61-4.93Q35.03-4.93 35.03-2.97L35.03-2.97L35.03-0.89Q34.96 2.55 31.51 3.52L31.51 3.52Z"></path></g></g></svg><style>@media (prefers-color-scheme: light) { :root { filter: none; } }
@media (prefers-color-scheme: dark) { :root { filter: none; } }
</style></svg>